HIERARCHY
ROOT pelvis
{
	OFFSET 0.003123 -0.351407 0.012037
	CHANNELS 6 Xposition Yposition Zposition Zrotation Yrotation Xrotation 
	JOINT left_hip
	{
		OFFSET 0.058189 -0.092763 -0.026001
		CHANNELS 3 Zrotation Yrotation Xrotation
		JOINT left_knee
		{
			OFFSET 0.054695 -0.378753 -0.009396
			CHANNELS 3 Zrotation Yrotation Xrotation
			JOINT left_ankle
			{
				OFFSET -0.043453 -0.403059 -0.031876
				CHANNELS 3 Zrotation Yrotation Xrotation
				JOINT left_foot
				{
					OFFSET 0.047257 -0.057997 0.118216
					CHANNELS 3 Zrotation Yrotation Xrotation
					End Site
					{
						OFFSET 0.000000 0.000000 0.000000
					}
				}
			}
		}
	}
	JOINT right_hip
	{
		OFFSET -0.063267 -0.103908 -0.021250
		CHANNELS 3 Zrotation Yrotation Xrotation
		JOINT right_knee
		{
			OFFSET -0.044210 -0.362380 -0.016824
			CHANNELS 3 Zrotation Yrotation Xrotation
			JOINT right_ankle
			{
				OFFSET 0.015417 -0.410728 -0.020192
				CHANNELS 3 Zrotation Yrotation Xrotation
				JOINT right_foot
				{
					OFFSET -0.038812 -0.058328 0.119049
					CHANNELS 3 Zrotation Yrotation Xrotation
					End Site
					{
						OFFSET 0.000000 0.000000 0.000000
					}
				}
			}
		}
	}
	JOINT spine_1
	{
		OFFSET -0.002763 0.109891 -0.027618
		CHANNELS 3 Zrotation Yrotation Xrotation
		JOINT spine_2
		{
			OFFSET 0.009448 0.131853 -0.005940
			CHANNELS 3 Zrotation Yrotation Xrotation
			JOINT spine_3
			{
				OFFSET -0.011330 0.052235 0.028447
				CHANNELS 3 Zrotation Yrotation Xrotation
				JOINT neck
				{
					OFFSET -0.012164 0.165167 -0.031615
					CHANNELS 3 Zrotation Yrotation Xrotation
					JOINT head
					{
						OFFSET 0.024783 0.160452 0.020737
						CHANNELS 3 Zrotation Yrotation Xrotation
						End Site
						{
							OFFSET 0.000000 0.000000 0.000000
						}
					}
				}
				JOINT left_collar
				{
					OFFSET 0.046364 0.084944 -0.007220
					CHANNELS 3 Zrotation Yrotation Xrotation
					JOINT left_shoulder
					{
						OFFSET 0.119239 0.057728 -0.015461
						CHANNELS 3 Zrotation Yrotation Xrotation
						JOINT left_elbow
						{
							OFFSET 0.254123 -0.072151 -0.042459
							CHANNELS 3 Zrotation Yrotation Xrotation
							JOINT left_wrist
							{
								OFFSET 0.251987 0.023221 -0.002472
								CHANNELS 3 Zrotation Yrotation Xrotation
								JOINT left_index_1
								{
									OFFSET 0.101902 -0.008688 0.019351
									CHANNELS 3 Zrotation Yrotation Xrotation
									JOINT left_index_2
									{
										OFFSET 0.030149 -0.011154 0.001151
										CHANNELS 3 Zrotation Yrotation Xrotation
										JOINT left_index_3
										{
											OFFSET 0.006504 -0.021577 -0.002433
											CHANNELS 3 Zrotation Yrotation Xrotation
											End Site
											{
												OFFSET 0.000000 0.000000 0.000000
											}
										}
									}
								}
								JOINT left_middle_1
								{
									OFFSET 0.109398 -0.006328 -0.003981
									CHANNELS 3 Zrotation Yrotation Xrotation
									JOINT left_middle_2
									{
										OFFSET 0.026472 -0.015218 -0.004641
										CHANNELS 3 Zrotation Yrotation Xrotation
										JOINT left_middle_3
										{
											OFFSET 0.005022 -0.023347 -0.001911
											CHANNELS 3 Zrotation Yrotation Xrotation
											End Site
											{
												OFFSET 0.000000 0.000000 0.000000
											}
										}
									}
								}
								JOINT left_pinky_1
								{
									OFFSET 0.084047 -0.014539 -0.043750
									CHANNELS 3 Zrotation Yrotation Xrotation
									JOINT left_pinky_2
									{
										OFFSET 0.012124 -0.014448 -0.005375
										CHANNELS 3 Zrotation Yrotation Xrotation
										JOINT left_pinky_3
										{
											OFFSET 0.003798 -0.018853 0.000167
											CHANNELS 3 Zrotation Yrotation Xrotation
											End Site
											{
												OFFSET 0.000000 0.000000 0.000000
											}
										}
									}
								}
								JOINT left_ring_1
								{
									OFFSET 0.097444 -0.009268 -0.027345
									CHANNELS 3 Zrotation Yrotation Xrotation
									JOINT left_ring_2
									{
										OFFSET 0.023561 -0.016057 -0.001895
										CHANNELS 3 Zrotation Yrotation Xrotation
										JOINT left_ring_3
										{
											OFFSET 0.004257 -0.023548 0.000814
											CHANNELS 3 Zrotation Yrotation Xrotation
											End Site
											{
												OFFSET 0.000000 0.000000 0.000000
											}
										}
									}
								}
								JOINT left_thumb_1
								{
									OFFSET 0.040636 -0.017977 0.025611
									CHANNELS 3 Zrotation Yrotation Xrotation
									JOINT left_thumb_2
									{
										OFFSET 0.021637 -0.017639 0.011623
										CHANNELS 3 Zrotation Yrotation Xrotation
										JOINT left_thumb_3
										{
											OFFSET 0.024002 -0.008356 0.006548
											CHANNELS 3 Zrotation Yrotation Xrotation
											End Site
											{
												OFFSET 0.000000 0.000000 0.000000
											}
										}
									}
								}
							}
						}
					}
				}
				JOINT right_collar
				{
					OFFSET -0.047695 0.084339 -0.013400
					CHANNELS 3 Zrotation Yrotation Xrotation
					JOINT right_shoulder
					{
						OFFSET -0.102578 0.053524 -0.012669
						CHANNELS 3 Zrotation Yrotation Xrotation
						JOINT right_elbow
						{
							OFFSET -0.271150 -0.036492 -0.026467
							CHANNELS 3 Zrotation Yrotation Xrotation
							JOINT right_wrist
							{
								OFFSET -0.249267 -0.004533 -0.015325
								CHANNELS 3 Zrotation Yrotation Xrotation
								JOINT right_index_1
								{
									OFFSET -0.099881 -0.011783 0.019600
									CHANNELS 3 Zrotation Yrotation Xrotation
									JOINT right_index_2
									{
										OFFSET -0.030148 -0.011154 0.001151
										CHANNELS 3 Zrotation Yrotation Xrotation
										JOINT right_index_3
										{
											OFFSET -0.006505 -0.021577 -0.002432
											CHANNELS 3 Zrotation Yrotation Xrotation
											End Site
											{
												OFFSET 0.000000 0.000000 0.000000
											}
										}
									}
								}
								JOINT right_middle_1
								{
									OFFSET -0.107376 -0.009422 -0.003734
									CHANNELS 3 Zrotation Yrotation Xrotation
									JOINT right_middle_2
									{
										OFFSET -0.026472 -0.015218 -0.004641
										CHANNELS 3 Zrotation Yrotation Xrotation
										JOINT right_middle_3
										{
											OFFSET -0.005022 -0.023347 -0.001911
											CHANNELS 3 Zrotation Yrotation Xrotation
											End Site
											{
												OFFSET 0.000000 0.000000 0.000000
											}
										}
									}
								}
								JOINT right_pinky_1
								{
									OFFSET -0.082027 -0.017634 -0.043503
									CHANNELS 3 Zrotation Yrotation Xrotation
									JOINT right_pinky_2
									{
										OFFSET -0.012123 -0.014448 -0.005374
										CHANNELS 3 Zrotation Yrotation Xrotation
										JOINT right_pinky_3
										{
											OFFSET -0.003798 -0.018852 0.000167
											CHANNELS 3 Zrotation Yrotation Xrotation
											End Site
											{
												OFFSET 0.000000 0.000000 0.000000
											}
										}
									}
								}
								JOINT right_ring_1
								{
									OFFSET -0.095423 -0.012362 -0.027099
									CHANNELS 3 Zrotation Yrotation Xrotation
									JOINT right_ring_2
									{
										OFFSET -0.023561 -0.016057 -0.001895
										CHANNELS 3 Zrotation Yrotation Xrotation
										JOINT right_ring_3
										{
											OFFSET -0.004257 -0.023548 0.000816
											CHANNELS 3 Zrotation Yrotation Xrotation
											End Site
											{
												OFFSET 0.000000 0.000000 0.000000
											}
										}
									}
								}
								JOINT right_thumb_1
								{
									OFFSET -0.038613 -0.021074 0.025861
									CHANNELS 3 Zrotation Yrotation Xrotation
									JOINT right_thumb_2
									{
										OFFSET -0.021636 -0.017639 0.011623
										CHANNELS 3 Zrotation Yrotation Xrotation
										JOINT right_thumb_3
										{
											OFFSET -0.024004 -0.008353 0.006547
											CHANNELS 3 Zrotation Yrotation Xrotation
											End Site
											{
												OFFSET 0.000000 0.000000 0.000000
											}
										}
									}
								}
							}
						}
					}
				}
			}
		}
	}
}
MOTION
Frames: 4
Frame Time: 0.050000
0.151726 0.910358 1.023499 169.168950 65.852535 161.559079 7.560176 -8.505489 11.225124 -19.417376 -9.242967 9.578286 52.521329 15.553801 36.175911 0.000000 0.000000 0.000000 4.947991 -1.996430 -9.056008 -17.988232 -5.959512 24.500014 89.101426 10.032481 16.669995 0.000000 0.000000 0.000000 3.045527 -0.903279 13.716639 -19.580327 -3.726937 -11.740342 24.174622 44.601927 30.663881 3.462318 -3.541765 1.978142 0.000000 0.000000 0.000000 4.433818 -28.096013 -17.994381 -52.381224 11.371698 -33.727946 -58.549890 -6.106106 -4.581956 9.183318 0.607775 46.525849 -18.370449 18.481967 1.916070 -11.273534 17.038532 12.893400 0.000000 0.000000 0.000000 -15.832252 5.347948 -2.578292 -52.246876 35.767912 8.248563 0.000000 0.000000 0.000000 53.292017 -17.498568 -18.906716 -114.225898 -14.291782 -15.659426 0.000000 0.000000 0.000000 6.962044 -0.921269 -2.227409 -93.078089 16.797614 -5.658159 0.000000 0.000000 0.000000 -0.248874 26.055663 18.803348 7.684643 -12.625327 -10.076172 0.000000 0.000000 0.000000 2.989435 -21.008626 29.066040 56.408369 50.719491 57.158032 6.348766 39.395557 4.377286 -9.240256 -4.375929 -29.792807 20.225580 -16.633948 1.071045 52.125336 30.431992 6.980554 0.000000 0.000000 0.000000 36.832826 11.874907 0.535036 42.488560 17.647163 -8.696084 0.000000 0.000000 0.000000 -5.875213 34.440577 -42.026464 33.626826 8.379627 -11.231357 0.000000 0.000000 0.000000 24.167932 33.049637 -7.596374 36.859569 18.621281 -12.328339 0.000000 0.000000 0.000000 -23.214461 -21.681552 4.259419 12.910529 6.327417 2.345747 0.000000 0.000000 0.000000 
0.163975 0.916845 1.012939 168.344834 63.935652 159.495091 5.971160 -7.520484 11.117057 -22.616039 -10.782734 13.923197 50.854412 17.303227 31.743404 0.000000 0.000000 0.000000 3.212582 -1.917403 -5.912765 -16.937990 -6.298029 24.109912 88.231553 9.006615 14.703004 0.000000 0.000000 0.000000 2.100958 -0.677158 12.610225 -23.666738 -6.380887 -5.555431 26.257550 44.907558 27.579363 2.587675 -3.562534 2.185547 0.000000 0.000000 0.000000 4.311250 -27.212322 -16.462903 -58.142035 7.336254 -36.365146 -49.636519 -9.012998 -0.982440 3.421386 4.134284 56.984956 -43.222461 28.845347 -6.044166 -18.697199 39.668707 29.456642 0.000000 0.000000 0.000000 -54.875939 35.810451 -23.106100 -37.869272 20.896472 37.332692 0.000000 0.000000 0.000000 -156.830486 21.261851 139.539163 155.343181 -54.793733 -6.554687 0.000000 0.000000 0.000000 -92.408211 50.576013 -107.551730 -113.558986 33.462856 63.300592 0.000000 0.000000 0.000000 -26.537655 29.085151 9.253058 65.913803 9.210838 -39.586955 0.000000 0.000000 0.000000 4.081518 -19.859611 27.588932 55.758098 49.869726 53.445572 4.752111 35.404109 2.714340 -7.206181 1.452786 -28.466372 21.120013 -10.420479 1.462691 51.082064 44.898231 -1.366036 0.000000 0.000000 0.000000 36.854029 12.076961 0.463117 59.736133 28.313146 -15.208680 0.000000 0.000000 0.000000 -16.759495 38.644650 -61.653968 75.448720 7.151007 -8.219178 0.000000 0.000000 0.000000 29.171287 36.945265 -7.388351 52.958620 26.992430 -15.455382 0.000000 0.000000 0.000000 -16.344193 -4.534727 -1.881456 5.558851 -14.265429 15.697804 0.000000 0.000000 0.000000 
0.172455 0.915153 1.002380 162.979021 72.983927 152.664091 3.177118 -6.710837 15.307733 -19.714103 -9.037435 6.556990 50.428311 17.927754 35.809631 0.000000 0.000000 0.000000 6.187415 -0.718779 -5.385954 -22.796357 -5.247689 25.300721 92.628878 7.178730 22.734592 0.000000 0.000000 0.000000 5.980389 -1.678341 12.454588 -29.711883 -4.917775 -5.761847 30.827531 42.970834 28.498118 -1.088902 -5.520717 5.550681 0.000000 0.000000 0.000000 5.076883 -19.644651 -17.695201 -67.281174 6.811663 -41.568476 -40.782785 -5.327543 -0.903376 -3.071788 3.645849 69.608683 -48.181037 53.004513 -8.014047 -49.794654 30.508245 4.786057 0.000000 0.000000 0.000000 -68.435998 61.741206 -48.675828 -52.589657 27.770672 35.413982 0.000000 0.000000 0.000000 170.601530 -7.208534 -85.308611 125.782456 15.331043 -48.400711 0.000000 0.000000 0.000000 -94.549188 -9.025691 73.229068 72.137894 5.669283 -114.912087 0.000000 0.000000 0.000000 -55.668368 40.850262 1.409119 96.513869 17.062630 -30.616618 0.000000 0.000000 0.000000 -3.123901 -9.689458 27.647005 62.900784 48.738526 62.833791 -2.262102 30.389988 -0.297278 -1.912223 3.866546 -32.231962 26.526401 -18.454851 0.498064 76.865471 33.814499 3.678053 0.000000 0.000000 0.000000 41.866895 10.364986 1.304751 63.943368 27.155623 -15.673022 0.000000 0.000000 0.000000 -0.483920 49.385131 -60.763660 44.628470 6.476733 -5.400836 0.000000 0.000000 0.000000 37.829649 41.772980 -5.244512 34.223214 33.792021 -31.984734 0.000000 0.000000 0.000000 -18.149072 -18.243045 3.248248 3.503890 1.830924 8.524025 0.000000 0.000000 0.000000 
0.177166 0.909753 0.997101 157.857259 73.893953 145.456273 2.720995 -7.018169 16.972137 -19.947606 -8.608719 7.378641 45.513026 18.648220 32.513295 0.000000 0.000000 0.000000 6.523924 -0.438388 -3.250483 -26.829212 -5.585869 26.455380 96.603183 7.182730 24.840128 0.000000 0.000000 0.000000 3.452577 -0.832001 12.073169 -23.881657 -3.088311 -6.151088 26.540952 42.436222 32.764469 2.622278 -3.256788 2.725857 0.000000 0.000000 0.000000 7.877798 -19.060213 -10.040403 -66.461086 -1.243735 -42.286556 -45.140193 -8.809947 0.946116 1.223686 1.949255 58.904544 -38.899300 27.980706 -5.838854 -31.856563 28.156963 13.088426 0.000000 0.000000 0.000000 -35.196637 25.808552 -12.187483 -57.787089 22.541852 7.946316 0.000000 0.000000 0.000000 51.541658 -16.872543 -20.358725 179.901094 41.292682 -51.590302 0.000000 0.000000 0.000000 -17.861658 19.609708 -20.884570 -105.177775 -34.938457 21.213563 0.000000 0.000000 0.000000 -21.309483 33.938620 18.554078 45.069430 0.272456 -23.774082 0.000000 0.000000 0.000000 -1.205187 -11.109710 24.871756 57.958673 47.948492 55.077022 -1.280930 31.207904 0.275906 0.938826 4.950520 -26.778315 18.844634 -15.756038 2.326566 44.874613 35.097125 -3.640705 0.000000 0.000000 0.000000 29.649095 14.246786 -1.709199 38.445014 30.266374 -23.415187 0.000000 0.000000 0.000000 -14.487020 39.732134 -53.647644 15.863893 2.412337 -4.642378 0.000000 0.000000 0.000000 20.617172 34.784889 -10.666142 19.745676 21.523521 -25.054379 0.000000 0.000000 0.000000 -22.044120 -34.712586 14.020018 15.862271 23.855407 -5.815294 0.000000 0.000000 0.000000 
